HIERARCHY
ROOT Hips
{
    OFFSET 0.000000 0.000000 0.000000
    CHANNELS 6 Xposition Yposition Zposition Zrotation Xrotation Yrotation
    JOINT Spine
    {
        OFFSET -0.000000 7.236184 0.000000
        CHANNELS 3 Zrotation Xrotation Yrotation
        JOINT Spine1
        {
            OFFSET -0.000000 20.420147 0.000000
            CHANNELS 3 Zrotation Xrotation Yrotation
            JOINT Neck
            {
                OFFSET -0.000000 20.336288 1.848754
                CHANNELS 3 Zrotation Xrotation Yrotation
                JOINT Head
                {
                    OFFSET -0.000000 12.354461 -1.764923
                    CHANNELS 3 Zrotation Xrotation Yrotation
                    End Site
                    {
                        OFFSET -0.000000 22.061537 0.000000
                    }
                }
            }
            JOINT LeftShoulder
            {
                OFFSET 3.573296 18.396038 -0.314103
                CHANNELS 3 Zrotation Xrotation Yrotation
                JOINT LeftArm
                {
                    OFFSET 10.880760 0.000000 0.000000
                    CHANNELS 3 Zrotation Xrotation Yrotation
                    JOINT LeftForeArm
                    {
                        OFFSET 27.185530 0.000000 0.000000
                        CHANNELS 3 Zrotation Xrotation Yrotation
                        JOINT LeftHand
                        {
                            OFFSET 27.825975 0.000000 0.000000
                            CHANNELS 3 Zrotation Xrotation Yrotation
                            End Site
                            {
                                OFFSET 13.236923 0.000000 0.000000
                            }
                        }
                    }
                }
            }
            JOINT RightShoulder
            {
                OFFSET -3.474926 18.396038 -0.314103
                CHANNELS 3 Zrotation Xrotation Yrotation
                JOINT RightArm
                {
                    OFFSET -10.880760 0.000000 0.000000
                    CHANNELS 3 Zrotation Xrotation Yrotation
                    JOINT RightForeArm
                    {
                        OFFSET -27.185530 0.000000 0.000000
                        CHANNELS 3 Zrotation Xrotation Yrotation
                        JOINT RightHand
                        {
                            OFFSET -27.825975 0.000000 0.000000
                            CHANNELS 3 Zrotation Xrotation Yrotation
                            End Site
                            {
                                OFFSET -13.236923 0.000000 0.000000
                            }
                        }
                    }
                }
            }
        }
    }
    JOINT LeftUpLeg
    {
        OFFSET 8.824615 0.000000 0.000000
        CHANNELS 3 Zrotation Xrotation Yrotation
        JOINT LeftLeg
        {
            OFFSET -0.000000 -35.111282 0.000000
            CHANNELS 3 Zrotation Xrotation Yrotation
            JOINT LeftFoot
            {
                OFFSET -0.000000 -42.324711 0.000000
                CHANNELS 3 Zrotation Xrotation Yrotation
                JOINT LeftToeBase
                {
                    OFFSET -0.000000 -5.735999 13.236923
                    CHANNELS 3 Zrotation Xrotation Yrotation
                    End Site
                    {
                        OFFSET -0.000000 0.000000 3.529846
                    }
                }
            }
        }
    }
    JOINT RightUpLeg
    {
        OFFSET -8.824615 0.000000 0.000000
        CHANNELS 3 Zrotation Xrotation Yrotation
        JOINT RightLeg
        {
            OFFSET -0.000000 -35.111282 0.000000
            CHANNELS 3 Zrotation Xrotation Yrotation
            JOINT RightFoot
            {
                OFFSET -0.000000 -42.324711 0.000000
                CHANNELS 3 Zrotation Xrotation Yrotation
                JOINT RightToeBase
                {
                    OFFSET -0.000000 -5.735999 13.236923
                    CHANNELS 3 Zrotation Xrotation Yrotation
                    End Site
                    {
                        OFFSET -0.000000 0.000000 3.529846
                    }
                }
            }
        }
    }
}
MOTION
Frames:    12
Frame Time:    0.008333
-19.908894    82.763962    107.489525    -0.604271    -8.090188    179.436279    -2.891034    -5.975607    -0.026228    -2.346213    0.523138    0.135511    7.942390    11.947025    4.614107    17.898424    -19.893795    10.067336    -2.434611    16.879456    -3.978932    -35.007633    44.444904    -46.097660    19.641960    2.178045    -26.406080    48.148075    2.160749    -10.426168    10.615306    16.596313    -6.965393    40.399063    41.954044    38.186264    -19.193485    -10.179362    35.662521    -46.931271    -5.171380    2.725051    4.336453    -18.020376    -1.540676    -2.745905    29.397678    16.181353    -9.812784    -13.258308    -16.587391    0.713063    -2.126307    -0.793494    -6.447412    -25.360210    -5.221660    16.100500    49.523163    -10.544297    7.873295    0.782768    -12.792582    -0.931072    -6.130530    1.016017    
-20.067518    82.541069    107.559692    -0.875013    -8.001811    179.459763    -3.024924    -5.886389    0.024648    -2.442226    0.756628    0.196292    7.812980    11.659061    4.555821    17.930471    -20.330717    10.067536    -2.563775    17.050156    -4.176323    -34.458096    44.896172    -47.676659    20.053513    2.138428    -26.412115    47.872395    2.389255    -10.119785    10.723784    16.741041    -6.595183    39.188084    43.413425    39.973602    -19.619499    -10.676264    36.003624    -46.543438    -5.436368    2.675468    4.090501    -18.417013    -1.404689    -2.940187    30.171789    16.327805    -9.829007    -13.500010    -16.853710    0.771775    -2.165680    -0.858892    -6.532731    -25.306082    -5.047087    16.379005    49.642899    -10.934481    7.640118    0.713564    -12.890160    -1.012928    -6.390740    1.105782    
-20.219688    82.313217    107.631126    -1.124361    -7.920159    179.488571    -3.137472    -5.794707    0.081816    -2.520428    0.997017    0.262781    7.679677    11.377811    4.467683    17.923185    -20.825266    10.034350    -2.675401    17.204632    -4.367981    -33.986626    45.213108    -49.122200    20.433199    2.113408    -26.384531    47.601265    2.607882    -9.831525    10.797162    16.853872    -6.236236    37.914944    44.677830    41.710873    -20.015303    -11.064485    36.312504    -46.176670    -5.643751    2.714581    3.860283    -18.824642    -1.241653    -3.105515    30.959402    16.443996    -9.821506    -13.755463    -17.106771    0.820416    -2.203038    -0.913087    -6.667715    -25.256203    -4.890866    16.700266    49.757492    -11.369949    7.453605    0.603372    -12.948873    -1.088677    -6.707110    1.189057    
-20.364765    82.083923    107.702805    -1.351255    -7.848300    179.518204    -3.228283    -5.706873    0.144709    -2.582150    1.244097    0.333926    7.545227    11.111019    4.349102    17.881088    -21.378502    9.968721    -2.765972    17.339544    -4.550032    -33.598869    45.413586    -50.412109    20.787161    2.103547    -26.330938    47.341003    2.819306    -9.561656    10.839924    16.938629    -5.895150    36.638603    45.728149    43.348793    -20.381741    -11.320450    36.586517    -45.831516    -5.772586    2.850270    3.645525    -19.233551    -1.053801    -3.237073    31.741276    16.522324    -9.791197    -14.023314    -17.335976    0.859787    -2.237785    -0.956967    -6.853323    -25.218491    -4.763695    17.061140    49.878826    -11.840265    7.331030    0.462057    -12.950833    -1.158539    -7.060594    1.266055    
-20.501057    81.858398    107.773163    -1.553576    -7.789817    179.543900    -3.297048    -5.630242    0.211728    -2.628192    1.495888    0.408300    7.413021    10.867510    4.200594    17.809034    -21.985352    9.871871    -2.832825    17.450689    -4.717630    -33.296276    45.514645    -51.521008    21.117638    2.106612    -26.257864    47.102306    3.021760    -9.311068    10.857506    16.999199    -5.579928    35.428146    46.552021    44.825100    -20.722696    -11.430001    36.817009    -45.516369    -5.806526    3.077521    3.447882    -19.633026    -0.845879    -3.331341    32.495102    16.555859    -9.740976    -14.299501    -17.531210    0.890247    -2.269211    -0.990928    -7.087866    -25.201355    -4.676587    17.451773    50.016674    -12.327211    7.286930    0.305818    -12.880769    -1.223838    -7.429843    1.338188    
-20.627630    81.640350    107.841347    -1.730283    -7.748060    179.562119    -3.344355    -5.570998    0.281118    -2.658844    1.751037    0.484555    7.285291    10.653932    4.022036    17.710926    -22.643019    9.744312    -2.875013    17.535637    -4.867615    -33.075871    45.530594    -52.435669    21.425465    2.118687    -26.169518    46.894917    3.211913    -9.078988    10.856091    17.040995    -5.295859    34.341885    47.152290    46.091724    -21.043867    -11.391482    36.994228    -45.242691    -5.738374    3.382209    3.269118    -20.018330    -0.622651    -3.388455    33.207451    16.539520    -9.674180    -14.580796    -17.685507    0.911255    -2.297591    -1.014365    -7.369555    -25.212641    -4.638467    17.862989    50.178421    -12.813838    7.329751    0.152691    -12.728317    -1.287453    -7.796885    1.408563    
-20.744003    81.432297    107.907257    -1.880263    -7.726287    179.571075    -3.371073    -5.533765    0.350898    -2.672451    2.008142    0.560754    7.163268    10.474276    3.811761    17.587364    -23.349558    9.583666    -2.892528    17.593193    -4.997829    -32.937572    45.469238    -53.145542    21.709518    2.135455    -26.067062    46.726807    3.385465    -8.864364    10.840601    17.068405    -5.046156    33.423218    47.542374    47.112099    -21.351095    -11.215992    37.107395    -45.022739    -5.571565    3.742649    3.111586    -20.389767    -0.389167    -3.410896    33.871891    16.471182    -9.595610    -14.863488    -17.795183    0.923081    -2.322859    -1.027578    -7.698332    -25.259514    -4.658296    18.288023    50.369419    -13.286489    7.464137    0.020202    -12.485195    -1.352360    -8.146490    1.480397    
-20.847645    81.240395    107.969795    -1.998809    -7.727150    179.571045    -3.377645    -5.520458    0.417157    -2.665016    2.258637    0.632678    7.049768    10.334235    3.572091    17.438904    -24.087482    9.389452    -2.886549    17.621515    -5.104139    -32.890026    45.334003    -53.627186    21.959381    2.154628    -25.951311    46.606800    3.535480    -8.671534    10.814586    17.085197    -4.838356    32.718678    47.733162    47.844704    -21.637608    -10.930042    37.144783    -44.869862    -5.326344    4.127033    2.981806    -20.742916    -0.156549    -3.403642    34.474007    16.356417    -9.510990    -15.137799    -17.858456    0.927542    -2.343837    -1.032585    -8.067101    -25.345240    -4.743464    18.713085    50.587139    -13.725113    7.686704    -0.072640    -12.152863    -1.420127    -8.458626    1.555356    
-20.937883    81.067383    108.028961    -2.082788    -7.751219    179.563599    -3.364358    -5.529473    0.476978    -2.631671    2.496656    0.696900    6.945059    10.234894    3.301692    17.262569    -24.847931    9.157209    -2.859080    17.621307    -5.184299    -32.947536    45.120338    -53.866261    22.167152    2.177315    -25.818888    46.537720    3.659747    -8.502516    10.780641    17.094526    -4.676013    32.247826    47.740349    48.274097    -21.892536    -10.565076    37.098812    -44.787476    -5.031870    4.511220    2.884908    -21.079355    0.067608    -3.373787    35.012566    16.205717    -9.426414    -15.397269    -17.880016    0.927387    -2.358165    -1.032440    -8.473837    -25.470190    -4.900757    19.132473    50.829227    -14.119994    7.993589    -0.111228    -11.732398    -1.491825    -8.721678    1.634572    
-21.013508    80.917107    108.084045    -2.128690    -7.797157    179.550049    -3.331980    -5.557303    0.527580    -2.566250    2.714618    0.750223    6.848539    10.178185    3.000003    17.055559    -25.617702    8.882851    -2.812781    17.593788    -5.235144    -33.129501    44.818363    -53.844677    22.320463    2.207315    -25.664276    46.520576    3.757156    -8.359985    10.739579    17.099333    -4.563700    32.025143    47.572330    48.388966    -22.096382    -10.156286    36.963966    -44.772030    -4.724933    4.874918    2.826940    -21.396671    0.276131    -3.329163    35.483166    16.036549    -9.347900    -15.633427    -17.869473    0.925756    -2.364786    -1.030637    -8.914995    -25.630541    -5.135295    19.538048    51.089703    -14.460658    8.378228    -0.083488    -11.229147    -1.567186    -8.924053    1.717704    
-21.072899    80.794266    108.133438    -2.134643    -7.861072    179.530457    -3.282479    -5.598435    0.567125    -2.464609    2.903861    0.790227    6.759414    10.163714    2.669832    16.818327    -26.374376    8.565479    -2.751234    17.541256    -5.253162    -33.449265    44.419914    -53.552959    22.406265    2.247668    -25.481806    46.550880    3.827062    -8.244423    10.692840    17.100796    -4.506026    32.055691    47.234821    48.188122    -22.225199    -9.740267    36.741302    -44.812294    -4.444864    5.202889    2.812807    -21.686625    0.463399    -3.277615    35.876907    15.870506    -9.281549    -15.836423    -17.840431    0.924932    -2.363155    -1.029716    -9.382678    -25.817087    -5.446181    19.917183    51.358280    -14.735572    8.828253    0.016934    -10.657633    -1.643865    -9.055250    1.802129    
-21.115337    80.701958    108.175446    -2.102525    -7.937855    179.503357    -3.219339    -5.647895    0.595431    -2.324912    3.059382    0.816450    6.675251    10.189840    2.313720    16.552816    -27.100012    8.205386    -2.677641    17.465269    -5.236133    -33.911629    43.917652    -52.993809    22.413109    2.299569    -25.264500    46.619179    3.869629    -8.151475    10.640901    17.099274    -4.504156    32.332203    46.729393    47.683353    -22.260914    -9.344092    36.436604    -44.893837    -4.221153    5.489185    2.843638    -21.939924    0.628016    -3.226064    36.186611    15.725093    -9.230739    -15.999715    -17.804874    0.925987    -2.354402    -1.030874    -9.871411    -26.018686    -5.829439    20.257509    51.625095    -14.936586    9.330754    0.189575    -10.034001    -1.718593    -9.110338    1.884218    
